<?xml version="1.0" encoding="UTF-8"?><svg xmlns="http://www.w3.org/2000/svg" xmlns:xlink="http://www.w3.org/1999/xlink" fill-opacity="1" color-rendering="auto" color-interpolation="auto" text-rendering="auto" stroke="black" stroke-linecap="square" width="267" stroke-miterlimit="10" shape-rendering="auto" stroke-opacity="1" fill="black" stroke-dasharray="none" font-weight="normal" stroke-width="1" height="231" font-family="'Dialog'" font-style="normal" stroke-linejoin="miter" font-size="12px" stroke-dashoffset="0" image-rendering="auto">
  <!--Generated by ySVG 2.5-->
  <defs id="genericDefs"/>
  <g>
    <defs id="defs1">
      <linearGradient x1="28" gradientUnits="userSpaceOnUse" x2="186" y1="109" y2="109" id="linearGradient1" spreadMethod="reflect">
        <stop stop-opacity="1" stop-color="red" offset="0%"/>
        <stop stop-opacity="1" stop-color="silver" offset="100%"/>
      </linearGradient>
      <linearGradient x1="28" gradientUnits="userSpaceOnUse" x2="186" y1="-88" y2="-88" id="linearGradient2" spreadMethod="reflect">
        <stop stop-opacity="1" stop-color="rgb(51,51,51)" offset="0%"/>
        <stop stop-opacity="1" stop-color="rgb(153,153,153)" offset="100%"/>
      </linearGradient>
      <linearGradient x1="6.5" gradientUnits="userSpaceOnUse" x2="26.5" y1="12.5" y2="12.5" id="linearGradient3" spreadMethod="reflect">
        <stop stop-opacity="1" stop-color="black" offset="0%"/>
        <stop stop-opacity="1" stop-color="silver" offset="100%"/>
      </linearGradient>
      <linearGradient x1="85.1667" gradientUnits="userSpaceOnUse" x2="118.5" y1="-55" y2="-55" id="linearGradient4" spreadMethod="reflect">
        <stop stop-opacity="1" stop-color="black" offset="0%"/>
        <stop stop-opacity="1" stop-color="rgb(153,153,153)" offset="100%"/>
      </linearGradient>
      <linearGradient x1="104" gradientUnits="userSpaceOnUse" x2="124" y1="42.5" y2="42.5" id="linearGradient5" spreadMethod="reflect">
        <stop stop-opacity="1" stop-color="rgb(51,51,51)" offset="0%"/>
        <stop stop-opacity="1" stop-color="silver" offset="100%"/>
      </linearGradient>
      <linearGradient x1="-34" gradientUnits="userSpaceOnUse" x2="-14" y1="83" y2="83" id="linearGradient6" spreadMethod="reflect">
        <stop stop-opacity="1" stop-color="silver" offset="0%"/>
        <stop stop-opacity="1" stop-color="white" offset="100%"/>
      </linearGradient>
      <linearGradient x1="160" gradientUnits="userSpaceOnUse" x2="180" y1="83" y2="83" id="linearGradient7" spreadMethod="reflect">
        <stop stop-opacity="1" stop-color="silver" offset="0%"/>
        <stop stop-opacity="1" stop-color="white" offset="100%"/>
      </linearGradient>
      <clipPath clipPathUnits="userSpaceOnUse" id="clipPath1">
        <path d="M0 0 L267 0 L267 231 L0 231 L0 0 Z"/>
      </clipPath>
      <clipPath clipPathUnits="userSpaceOnUse" id="clipPath2">
        <path d="M-66 -103 L201 -103 L201 128 L-66 128 L-66 -103 Z"/>
      </clipPath>
    </defs>
    <g fill="white" text-rendering="geometricPrecision" shape-rendering="geometricPrecision" transform="translate(66,103)" stroke="white">
      <rect x="-66" width="267" height="231" y="-103" clip-path="url(#clipPath2)" stroke="none"/>
    </g>
    <g fill="url(#linearGradient1)" text-rendering="geometricPrecision" shape-rendering="geometricPrecision" transform="matrix(1,0,0,1,66,103)" stroke="url(#linearGradient1)">
      <rect x="-51" width="237" height="4" y="109" clip-path="url(#clipPath2)" stroke="none"/>
    </g>
    <g text-rendering="geometricPrecision" stroke-miterlimit="1.45" shape-rendering="geometricPrecision" transform="matrix(1,0,0,1,66,103)" stroke-linecap="butt">
      <rect fill="none" x="-51" width="237" height="4" y="109" clip-path="url(#clipPath2)"/>
    </g>
    <g fill="url(#linearGradient2)" text-rendering="geometricPrecision" shape-rendering="geometricPrecision" transform="matrix(1,0,0,1,66,103)" stroke="url(#linearGradient2)">
      <rect x="-51" y="-88" clip-path="url(#clipPath2)" width="237" rx="4" ry="4" height="191" stroke="none"/>
    </g>
    <g text-rendering="geometricPrecision" stroke-miterlimit="1.45" stroke-width="4" shape-rendering="geometricPrecision" transform="matrix(1,0,0,1,66,103)" stroke-linecap="butt">
      <rect x="-51" y="-88" clip-path="url(#clipPath2)" fill="none" width="237" rx="4" ry="4" height="191"/>
    </g>
    <g fill="rgb(255,204,0)" text-rendering="geometricPrecision" shape-rendering="geometricPrecision" transform="matrix(1,0,0,1,66,103)" stroke="rgb(255,204,0)">
      <path d="M11.5 83 L24.473 58.2652 L51.4515 66.7444 L42.8195 40.2434 L68 27.5 L42.8195 14.7566 L51.4515 -11.7444 L24.473 -3.2652 L11.5 -28 L-1.473 -3.2652 L-28.4515 -11.7444 L-19.8195 14.7566 L-45 27.5 L-19.8195 40.2434 L-28.4515 66.7444 L-1.473 58.2652 Z" fill-rule="evenodd" clip-path="url(#clipPath2)" stroke="none"/>
    </g>
    <g text-rendering="geometricPrecision" stroke-miterlimit="1.45" shape-rendering="geometricPrecision" transform="matrix(1,0,0,1,66,103)" stroke-linecap="butt">
      <path fill="none" d="M11.5 83 L24.473 58.2652 L51.4515 66.7444 L42.8195 40.2434 L68 27.5 L42.8195 14.7566 L51.4515 -11.7444 L24.473 -3.2652 L11.5 -28 L-1.473 -3.2652 L-28.4515 -11.7444 L-19.8195 14.7566 L-45 27.5 L-19.8195 40.2434 L-28.4515 66.7444 L-1.473 58.2652 Z" fill-rule="evenodd" clip-path="url(#clipPath2)"/>
    </g>
    <g fill="rgb(255,204,0)" text-rendering="geometricPrecision" shape-rendering="geometricPrecision" transform="matrix(1,0,0,1,66,103)" stroke="rgb(255,204,0)">
      <path d="M93.5 27 L106.473 2.2652 L133.4515 10.7444 L124.8195 -15.7566 L150 -28.5 L124.8195 -41.2434 L133.4515 -67.7444 L106.473 -59.2652 L93.5 -84 L80.527 -59.2652 L53.5485 -67.7444 L62.1805 -41.2434 L37 -28.5 L62.1805 -15.7566 L53.5485 10.7444 L80.527 2.2652 Z" fill-rule="evenodd" clip-path="url(#clipPath2)" stroke="none"/>
    </g>
    <g text-rendering="geometricPrecision" stroke-miterlimit="1.45" shape-rendering="geometricPrecision" transform="matrix(1,0,0,1,66,103)" stroke-linecap="butt">
      <path fill="none" d="M93.5 27 L106.473 2.2652 L133.4515 10.7444 L124.8195 -15.7566 L150 -28.5 L124.8195 -41.2434 L133.4515 -67.7444 L106.473 -59.2652 L93.5 -84 L80.527 -59.2652 L53.5485 -67.7444 L62.1805 -41.2434 L37 -28.5 L62.1805 -15.7566 L53.5485 10.7444 L80.527 2.2652 Z" fill-rule="evenodd" clip-path="url(#clipPath2)"/>
    </g>
    <g fill="url(#linearGradient3)" text-rendering="geometricPrecision" shape-rendering="geometricPrecision" transform="matrix(1,0,0,1,66,103)" stroke="url(#linearGradient3)">
      <circle r="15" clip-path="url(#clipPath2)" cx="11.5" cy="27.5" stroke="none"/>
    </g>
    <g text-rendering="geometricPrecision" stroke-miterlimit="1.45" shape-rendering="geometricPrecision" transform="matrix(1,0,0,1,66,103)" stroke-linecap="butt">
      <circle fill="none" r="15" clip-path="url(#clipPath2)" cx="11.5" cy="27.5"/>
    </g>
    <g fill="url(#linearGradient4)" text-rendering="geometricPrecision" shape-rendering="geometricPrecision" transform="matrix(1,0,0,1,66,103)" stroke="url(#linearGradient4)">
      <ellipse rx="25" ry="26.5" clip-path="url(#clipPath2)" cx="93.5" cy="-28.5" stroke="none"/>
    </g>
    <g text-rendering="geometricPrecision" stroke-miterlimit="1.45" shape-rendering="geometricPrecision" transform="matrix(1,0,0,1,66,103)" stroke-linecap="butt">
      <ellipse rx="25" fill="none" ry="26.5" clip-path="url(#clipPath2)" cx="93.5" cy="-28.5"/>
    </g>
    <g fill="rgb(255,204,0)" text-rendering="geometricPrecision" shape-rendering="geometricPrecision" transform="matrix(1,0,0,1,66,103)" stroke="rgb(255,204,0)">
      <path d="M109 94 L118.414 77.733 L137.9914 83.3094 L131.7274 65.8808 L150 57.5 L131.7274 49.1192 L137.9914 31.6906 L118.414 37.267 L109 21 L99.586 37.267 L80.0086 31.6906 L86.2726 49.1192 L68 57.5 L86.2726 65.8808 L80.0086 83.3094 L99.586 77.733 Z" fill-rule="evenodd" clip-path="url(#clipPath2)" stroke="none"/>
    </g>
    <g text-rendering="geometricPrecision" stroke-miterlimit="1.45" shape-rendering="geometricPrecision" transform="matrix(1,0,0,1,66,103)" stroke-linecap="butt">
      <path fill="none" d="M109 94 L118.414 77.733 L137.9914 83.3094 L131.7274 65.8808 L150 57.5 L131.7274 49.1192 L137.9914 31.6906 L118.414 37.267 L109 21 L99.586 37.267 L80.0086 31.6906 L86.2726 49.1192 L68 57.5 L86.2726 65.8808 L80.0086 83.3094 L99.586 77.733 Z" fill-rule="evenodd" clip-path="url(#clipPath2)"/>
    </g>
    <g fill="rgb(255,255,153)" text-rendering="geometricPrecision" shape-rendering="geometricPrecision" transform="matrix(1,0,0,1,66,103)" stroke="rgb(255,255,153)">
      <circle r="15" clip-path="url(#clipPath2)" cx="109" cy="57.5" stroke="none"/>
    </g>
    <g text-rendering="geometricPrecision" stroke-miterlimit="1.45" shape-rendering="geometricPrecision" transform="matrix(1,0,0,1,66,103)" stroke-linecap="butt">
      <circle fill="none" r="15" clip-path="url(#clipPath2)" cx="109" cy="57.5"/>
    </g>
    <g fill="rgb(153,204,255)" text-rendering="geometricPrecision" shape-rendering="geometricPrecision" transform="matrix(1,0,0,1,66,103)" stroke="rgb(153,204,255)">
      <path d="M61.5 88 L74 113 L49 113 Z" fill-rule="evenodd" clip-path="url(#clipPath2)" stroke="none"/>
    </g>
    <g text-rendering="geometricPrecision" stroke-miterlimit="1.45" stroke-width="2" shape-rendering="geometricPrecision" transform="matrix(1,0,0,1,66,103)" stroke-linecap="butt">
      <path fill="none" d="M61.5 88 L74 113 L49 113 Z" fill-rule="evenodd" clip-path="url(#clipPath2)"/>
    </g>
    <g fill="rgb(255,204,0)" text-rendering="geometricPrecision" shape-rendering="geometricPrecision" transform="matrix(1,0,0,1,66,103)" stroke="rgb(255,204,0)">
      <path d="M93.5 -13.5 L96.9442 -20.1851 L104.1066 -17.8934 L101.8149 -25.0558 L108.5 -28.5 L101.8149 -31.9442 L104.1066 -39.1066 L96.9442 -36.8149 L93.5 -43.5 L90.0558 -36.8149 L82.8934 -39.1066 L85.1851 -31.9442 L78.5 -28.5 L85.1851 -25.0558 L82.8934 -17.8934 L90.0558 -20.1851 Z" fill-rule="evenodd" clip-path="url(#clipPath2)" stroke="none"/>
    </g>
    <g text-rendering="geometricPrecision" stroke-miterlimit="1.45" shape-rendering="geometricPrecision" transform="matrix(1,0,0,1,66,103)" stroke-linecap="butt">
      <path fill="none" d="M93.5 -13.5 L96.9442 -20.1851 L104.1066 -17.8934 L101.8149 -25.0558 L108.5 -28.5 L101.8149 -31.9442 L104.1066 -39.1066 L96.9442 -36.8149 L93.5 -43.5 L90.0558 -36.8149 L82.8934 -39.1066 L85.1851 -31.9442 L78.5 -28.5 L85.1851 -25.0558 L82.8934 -17.8934 L90.0558 -20.1851 Z" fill-rule="evenodd" clip-path="url(#clipPath2)"/>
    </g>
    <g fill="rgb(255,204,0)" text-rendering="geometricPrecision" shape-rendering="geometricPrecision" transform="matrix(1,0,0,1,66,103)" stroke="rgb(255,204,0)">
      <path d="M11.5 42.5 L14.9442 35.8149 L22.1066 38.1066 L19.8149 30.9442 L26.5 27.5 L19.8149 24.0558 L22.1066 16.8934 L14.9442 19.1851 L11.5 12.5 L8.0558 19.1851 L0.8934 16.8934 L3.1851 24.0558 L-3.5 27.5 L3.1851 30.9442 L0.8934 38.1066 L8.0558 35.8149 Z" fill-rule="evenodd" clip-path="url(#clipPath2)" stroke="none"/>
    </g>
    <g text-rendering="geometricPrecision" stroke-miterlimit="1.45" shape-rendering="geometricPrecision" transform="matrix(1,0,0,1,66,103)" stroke-linecap="butt">
      <path fill="none" d="M11.5 42.5 L14.9442 35.8149 L22.1066 38.1066 L19.8149 30.9442 L26.5 27.5 L19.8149 24.0558 L22.1066 16.8934 L14.9442 19.1851 L11.5 12.5 L8.0558 19.1851 L0.8934 16.8934 L3.1851 24.0558 L-3.5 27.5 L3.1851 30.9442 L0.8934 38.1066 L8.0558 35.8149 Z" fill-rule="evenodd" clip-path="url(#clipPath2)"/>
    </g>
    <g fill="url(#linearGradient5)" text-rendering="geometricPrecision" shape-rendering="geometricPrecision" transform="matrix(1,0,0,1,66,103)" stroke="url(#linearGradient5)">
      <path d="M109 72.5 L112.4442 65.8149 L119.6066 68.1066 L117.3149 60.9441 L124 57.5 L117.3149 54.0559 L119.6066 46.8934 L112.4442 49.1851 L109 42.5 L105.5558 49.1851 L98.3934 46.8934 L100.6851 54.0559 L94 57.5 L100.6851 60.9441 L98.3934 68.1066 L105.5558 65.8149 Z" fill-rule="evenodd" clip-path="url(#clipPath2)" stroke="none"/>
    </g>
    <g text-rendering="geometricPrecision" stroke-miterlimit="1.45" shape-rendering="geometricPrecision" transform="matrix(1,0,0,1,66,103)" stroke-linecap="butt">
      <path fill="none" d="M109 72.5 L112.4442 65.8149 L119.6066 68.1066 L117.3149 60.9441 L124 57.5 L117.3149 54.0559 L119.6066 46.8934 L112.4442 49.1851 L109 42.5 L105.5558 49.1851 L98.3934 46.8934 L100.6851 54.0559 L94 57.5 L100.6851 60.9441 L98.3934 68.1066 L105.5558 65.8149 Z" fill-rule="evenodd" clip-path="url(#clipPath2)"/>
    </g>
    <g fill="url(#linearGradient6)" text-rendering="geometricPrecision" shape-rendering="geometricPrecision" transform="matrix(1,0,0,1,66,103)" stroke="url(#linearGradient6)">
      <circle r="15" clip-path="url(#clipPath2)" cx="-29" cy="98" stroke="none"/>
    </g>
    <g text-rendering="geometricPrecision" stroke-miterlimit="1.45" stroke-width="4" shape-rendering="geometricPrecision" transform="matrix(1,0,0,1,66,103)" stroke-linecap="butt">
      <circle fill="none" r="15" clip-path="url(#clipPath2)" cx="-29" cy="98"/>
      <text x="-35.0205" font-size="20px" y="104.9238" clip-path="url(#clipPath2)" font-family="'DejaVu Sans Mono'" stroke="none" stroke-width="1" xml:space="preserve">&gt;</text>
    </g>
    <g fill="url(#linearGradient7)" text-rendering="geometricPrecision" shape-rendering="geometricPrecision" transform="matrix(1,0,0,1,66,103)" stroke="url(#linearGradient7)">
      <circle r="15" clip-path="url(#clipPath2)" cx="165" cy="98" stroke="none"/>
    </g>
    <g text-rendering="geometricPrecision" stroke-miterlimit="1.45" stroke-width="4" shape-rendering="geometricPrecision" transform="matrix(1,0,0,1,66,103)" stroke-linecap="butt">
      <circle fill="none" r="15" clip-path="url(#clipPath2)" cx="165" cy="98"/>
      <text x="156.5713" font-size="14px" y="102.8467" clip-path="url(#clipPath2)" font-family="'DejaVu Sans Mono'" stroke="none" stroke-width="1" xml:space="preserve">||</text>
    </g>
  </g>
</svg>
