<!-- Generator: Adobe Illustrator 16.0.3, SVG Export Plug-In . SVG Version: 6.00 Build 0)  -->
<svg xmlns:inkscape="http://www.inkscape.org/namespaces/inkscape" xmlns:rdf="http://www.w3.org/1999/02/22-rdf-syntax-ns#" xmlns="http://www.w3.org/2000/svg" version="1.1" inkscape:version="0.48.5 r10040" xml:space="preserve" height="57.196617" width="266.04453" enable-background="new 0 0 266.045 57.196" y="0px" x="0px" xmlns:cc="http://creativecommons.org/ns#" xmlns:dc="http://purl.org/dc/elements/1.1/" sodipodi:docname="FICF-logo-gray.svg" viewBox="0 0 266.04451 57.196618" xmlns:sodipodi="http://sodipodi.sourceforge.net/DTD/sodipodi-0.dtd"><metadata><rdf:RDF><cc:Work rdf:about=""><dc:format>image/svg+xml</dc:format><dc:type rdf:resource="http://purl.org/dc/dcmitype/StillImage"/><dc:title/></cc:Work></rdf:RDF></metadata><sodipodi:namedview fit-margin-left="0" inkscape:zoom="1.4997462" borderopacity="1" inkscape:current-layer="g3133" inkscape:cx="133.0225" inkscape:cy="28.599002" inkscape:window-maximized="0" showgrid="false" fit-margin-right="0" bordercolor="#666666" inkscape:window-x="0" guidetolerance="10" objecttolerance="10" inkscape:window-y="40" fit-margin-bottom="0" inkscape:window-width="640" inkscape:pageopacity="0" inkscape:pageshadow="2" pagecolor="#ffffff" gridtolerance="10" inkscape:window-height="480" fit-margin-top="0"/><g transform="translate(-9.1738655e-6,-0.10438395)"><path fill="#b96c15" inkscape:connector-curvature="0" d="m246.9,4.8s1.6,15.601,1.3,17.101c0,0-0.4,3.8,5.3,17.3,5.7,13.6,2,4.2,6.7,15,0,0,1.3,1.9,2.1,3.1l2.101-17c0.399-6.1,0.2-16.1,0.2-16.1,0.399-0.201,1.699-16.901,1.399-18.1-0.2-1.301-0.1-5.801-0.1-5.801-17.3-0.699-21.2,0.7-21.2,0.7-12.7-0.8-27-0.8-27-0.8-0.8,2.9-1.3,7.3-1.2,8.7,0.101,1.399,0.4,3.5,0.101,7.2-0.2,3.699,0.6,14.3,0.6,14.3l-0.8-0.2c0.6,10-0.2,25.3-0.2,25.3h11.5c0.6-0.7,12-28.5,12-28.5,4.299-8.7,7.199-22.2,7.199-22.2m-9.2,29,10.6-2.5,2.101,2-1.2,3.801l-11.501-3.301z"/><g transform="translate(356.0152,84.6882)"><path fill="#b3b3b3" inkscape:connector-curvature="0" d="m-183.7-51.5h11.9c2.399,0,4.399,2,4.399,4.4v16.2c0,0.9-0.899,1.801-2.1,1.801s-2.099-0.801-2.099-1.801v-15c0-0.6-0.5-1.199-1.199-1.199h-11.9c-2.4,0-4.4-2-4.4-4.4v-11.9c0-2.399,2-4.399,4.4-4.399h11.9c0.6,0,1.1-0.5,1.199-0.9v-11.1c0-2.4,2-4.4,4.4-4.4h13c2.4,0,4.4,2,4.4,4.4v11.1c0,0.9,0.5,1.4,1.5,0.8,0,0,0.199-0.199,0.3-0.3,2.899-2.399,7.5-7.399,10.8-8.1,3.9-0.9,7.1,3.6,9.3,3.3,2.101-0.3,2.601-1.4,4.5-1.7,1.5-0.3,3.601,0.5,3.601,0.5s-0.801,0.3-1.2,0.5c-1.4,0.3-1.8,0.601-2.9,1.2-2.3,1.4-3.899,3.8-5.7,3.6-1.699-0.199-2.6-1.199-3.5-2-1.199-0.8-2-1.199-3.3-1.199-0.899,0-1.5,0.3-2.399,0.8-2.9,1.8-7.4,7.8-11.301,8h-0.199c-2.4,0-4.4-2-4.4-4.4v-11c0-0.6-0.5-1.2-1.2-1.2h-10.7c-0.6,0-1.199,0.5-1.199,1.2v11c0,2.4-2,4.4-4.4,4.4h-11.803c-0.601,0-1.2,0.5-1.2,1.2v9.6c0.3,0.597,0.7,0.997,1.5,0.997"/></g><path fill="#010202" inkscape:connector-curvature="0" d="M0.601,12.601v-11.101h6v0.9h-5v4h4.899v0.8h-4.899v5.3h-1v0.101z"/><path fill="#010202" inkscape:connector-curvature="0" d="m14,4.8v6c0,0.5,0,1.101,0.101,1.801h-0.9v-1.2c-0.701,0.899-1.501,1.399-2.501,1.399-1.7,0-2.5-1-2.5-3.1v-4.9h0.8v4.7c0,1.601,0.601,2.3,1.7,2.3,0.7,0,1.3-0.199,1.7-0.699,0.399-0.5,0.6-1,0.6-1.801v-4.5h1z"/><path fill="#010202" inkscape:connector-curvature="0" d="m16.601,12.601v-6c0-0.5,0-1.101-0.101-1.801h0.9v1.301c0.7-0.9,1.5-1.4,2.399-1.4,1.7,0,2.5,1,2.5,3.1v4.801h-0.899v-4.702c0-0.7-0.101-1.3-0.3-1.7-0.301-0.5-0.7-0.7-1.4-0.7s-1.2,0.2-1.7,0.7c-0.399,0.5-0.6,1-0.6,1.8v4.5h-0.8v0.101z"/><path fill="#010202" inkscape:connector-curvature="0" d="m31.2,1.5v10.101c0,0.5,0,0.899,0.1,1h-0.9v-1.301c-0.601,1-1.5,1.5-2.5,1.5s-1.8-0.399-2.4-1.199c-0.5-0.701-0.7-1.701-0.7-2.801,0-1.199,0.2-2.1,0.7-2.8,0.5-0.8,1.4-1.3,2.4-1.3,1.1,0,1.899,0.5,2.5,1.4v-4.6h0.8zm-1,7.2c0-0.9-0.2-1.6-0.5-2.2-0.4-0.7-1-1-1.9-1-0.899,0-1.399,0.3-1.8,1-0.3,0.601-0.5,1.3-0.5,2.2s0.2,1.6,0.5,2.2c0.4,0.7,1,1,1.8,1,0.801,0,1.4-0.4,1.801-1.101,0.5-0.399,0.599-1.198,0.599-2.099z"/><path fill="#010202" inkscape:connector-curvature="0" d="M38.3,12.601,38.2,11.3c-0.6,1-1.4,1.5-2.5,1.5-0.7,0-1.3-0.199-1.8-0.6s-0.7-1-0.7-1.7c0-0.899,0.4-1.6,1.2-2,0.6-0.399,1.4-0.5,2.4-0.5h1.301v-1c0-1-0.601-1.6-1.801-1.6-1.1,0-1.8,0.5-1.8,1.399h-0.899c0.199-1.399,1.099-2.099,2.799-2.099,0.899,0,1.6,0.2,2,0.6,0.3,0.301,0.6,0.7,0.701,1.1,0.1,0.3,0.1,0.7,0.1,1.399v3.4c0,0.4,0,0.9,0.1,1.5h-1v-0.098zm-0.199-4h-1c-0.801,0-1.4,0.1-1.9,0.3-0.7,0.3-1,0.8-1,1.5,0,0.5,0.2,0.899,0.5,1.2,0.399,1.6,0.799,1.7,1.299,1.7,0.6,0,1.2-0.2,1.6-0.6s0.7-1,0.7-1.601v0.101l0.001,0.002z"/><path fill="#010202" inkscape:connector-curvature="0" d="m47.3,10.2c-0.1,0.8-0.399,1.5-0.899,1.9-0.5,0.399-1.2,0.6-2,0.6-1.101,0-1.9-0.4-2.5-1.2-0.5-0.7-0.8-1.6-0.8-2.8s0.199-2.2,0.699-2.9c0.6-0.8,1.4-1.199,2.6-1.199,0.8,0,1.5,0.199,2,0.6,0.5,0.5,0.8,1.1,0.899,1.9h-1c0-0.601-0.199-1-0.6-1.301-0.3-0.3-0.8-0.5-1.3-0.5-1.5,0-2.3,1.101-2.3,3.4,0,2.1,0.8,3.2,2.3,3.2,1.1,0,1.7-0.601,1.899-1.7h1.002z"/><path fill="#010202" inkscape:connector-curvature="0" d="M49.2,2.7v-1.2h1.1v1.3h-1.1v-0.1zm0.1,9.901v-7.801h0.9v7.7h-0.9v0.101z"/><path fill="#010202" inkscape:connector-curvature="0" d="m52.4,8.7c0-1.1,0.3-2.1,0.899-2.8,0.601-0.8,1.5-1.2,2.601-1.2,1.1,0,1.899,0.4,2.6,1.2,0.601,0.8,0.9,1.7,0.9,2.8s-0.3,2.1-0.9,2.8c-0.6,0.8-1.5,1.2-2.6,1.2-1.101,0-1.9-0.4-2.601-1.2-0.599-0.7-0.899-1.6-0.899-2.8zm1,0c0,0.9,0.2,1.6,0.6,2.2,0.4,0.7,1.101,1,1.9,1s1.5-0.3,1.899-1c0.4-0.601,0.601-1.3,0.601-2.2s-0.2-1.6-0.601-2.2c-0.399-0.7-1.1-1-1.899-1s-1.5,0.3-1.9,1c-0.399,0.601-0.6,1.3-0.6,2.2zm2.201-4.9h-0.7l1.5-2.6h1.1l-1.9,2.6z"/><path fill="#010202" inkscape:connector-curvature="0" d="M65.8,12.601v-11.101h1v11.101h-1z"/><path fill="#010202" inkscape:connector-curvature="0" d="m69.601,12.601v-6c0-0.5,0-1.101-0.101-1.801h0.9v1.301c0.7-0.9,1.5-1.4,2.399-1.4,1.7,0,2.5,1,2.5,3.1v4.801h-0.899v-4.702c0-0.7-0.101-1.3-0.3-1.7-0.301-0.5-0.7-0.7-1.4-0.7s-1.2,0.2-1.7,0.7c-0.399,0.5-0.6,1-0.6,1.8v4.5h-0.8v0.101z"/><path fill="#010202" inkscape:connector-curvature="0" d="m78.4,10.5c0.1,1,0.7,1.5,1.899,1.5,0.601,0,1-0.1,1.4-0.3,0.5-0.3,0.7-0.7,0.7-1.2,0-0.399-0.2-0.8-0.601-1-0.199-0.1-0.6-0.3-1.199-0.399-0.099,0-0.299-0.101-0.599-0.201-0.8-0.2-1.3-0.4-1.5-0.5-0.5-0.4-0.8-0.9-0.8-1.6,0-0.699,0.3-1.3,0.9-1.699,0.5-0.301,1.1-0.5,1.899-0.5,1.8,0,2.7,0.699,2.7,2.1h-1c-0.1-0.9-0.7-1.4-1.8-1.4-1.2,0-1.8,0.4-1.8,1.301,0,0.6,0.699,1,2,1.399l0.401,0.1c0.8,0.199,1.4,0.399,1.7,0.699,0.5,0.4,0.8,0.9,0.8,1.601,0,0.8-0.3,1.399-1,1.899-0.5,0.4-1.2,0.5-2.1,0.5-1.9,0-2.9-0.8-2.9-2.3h0.9z"/><path fill="#010202" inkscape:connector-curvature="0" d="m87,10.601c0,0.5,0.101,0.8,0.2,1,0.2,0.299,0.401,0.399,0.8,0.399,0.3,0,0.5,0,0.8-0.1v0.8c-0.399,0.1-0.8,0.1-1,0.1-1.199,0-1.699-0.6-1.699-1.8v-5.399h-1.5v-0.801h1.399v-1.6l1-0.4v2h1.7v0.7h-1.7v5.101z"/><path fill="#010202" inkscape:connector-curvature="0" d="M90.4,2.7v-1.2h1.1v1.3h-1.1v-0.1zm0.1,9.901v-7.801h0.9v7.7h-0.9v0.101z"/><path fill="#010202" inkscape:connector-curvature="0" d="m95.4,10.601c0,0.5,0.1,0.8,0.2,1,0.2,0.299,0.4,0.399,0.8,0.399,0.3,0,0.5,0,0.8-0.1v0.8c-0.4,0.1-0.8,0.1-1,0.1-1.2,0-1.7-0.6-1.7-1.8v-5.399h-1.5v-0.801h1.5v-1.6l0.9-0.4v2h1.7v0.7h-1.7v5.101z"/><path fill="#010202" inkscape:connector-curvature="0" d="m104.8,4.8v6c0,0.5,0,1.101,0.101,1.801h-0.901v-1.2c-0.7,0.899-1.5,1.399-2.5,1.399-1.7,0-2.5-1-2.5-3.1v-4.9h0.9v4.7c0,1.601,0.6,2.3,1.7,2.3,0.699,0,1.3-0.199,1.699-0.699,0.4-0.5,0.601-1,0.601-1.801v-4.5h0.9z"/><path fill="#010202" inkscape:connector-curvature="0" d="m108.8,10.601c0,0.5,0.101,0.8,0.2,1,0.2,0.3,0.4,0.399,0.8,0.399,0.301,0,0.5,0,0.801-0.1v0.8c-0.4,0.1-0.801,0.1-1,0.1-1.2,0-1.7-0.6-1.7-1.8v-5.399h-1.5v-0.801h1.5v-1.6l0.899-0.4v2h1.7v0.7h-1.7v5.101z"/><path fill="#010202" inkscape:connector-curvature="0" d="m124.5,10c-0.2,1-0.6,1.7-1.399,2.2-0.601,0.4-1.5,0.7-2.5,0.7-1.5,0-2.7-0.601-3.5-1.7-0.7-1-1-2.3-1-4s0.399-3,1.1-4c0.8-1.1,2-1.7,3.6-1.7,1,0,1.7,0.2,2.301,0.601,0.699,0.5,1.1,1.199,1.199,2.1h-1c-0.1-0.6-0.399-1.1-0.899-1.5-0.4-0.3-1-0.4-1.7-0.4-1.2,0-2.2,0.5-2.8,1.601-0.5,0.899-0.8,2-0.8,3.3s0.3,2.4,0.8,3.3c0.6,1,1.5,1.5,2.8,1.5,0.7,0,1.2-0.2,1.7-0.5s0.8-0.8,0.899-1.5h1.199z"/><path fill="#010202" inkscape:connector-curvature="0" d="M130.9,12.601,130.8,11.3c-0.6,1-1.399,1.5-2.5,1.5-0.699,0-1.3-0.199-1.8-0.6s-0.7-1-0.7-1.7c0-0.899,0.4-1.6,1.2-2,0.601-0.399,1.4-0.5,2.4-0.5h1.3v-1c0-1-0.6-1.6-1.8-1.6-1.101,0-1.8,0.5-1.8,1.399h-0.9c0.2-1.399,1.1-2.1,2.8-2.1,0.9,0,1.601,0.2,2,0.6,0.3,0.301,0.601,0.7,0.7,1.101,0.1,0.3,0.1,0.7,0.1,1.399v3.4c0,0.4,0,0.9,0.101,1.5h-1v-0.098zm-0.2-4h-1.1c-0.801,0-1.4,0.1-1.9,0.3-0.7,0.3-1,0.8-1,1.5,0,0.5,0.2,0.899,0.5,1.2,0.3,0.3,0.7,0.399,1.2,0.399,0.6,0,1.2-0.2,1.6-0.6s0.7-1,0.7-1.601v1.402-1.299z"/><path fill="#010202" inkscape:connector-curvature="0" d="m135.601,10.601c0,0.5,0.1,0.8,0.199,1,0.2,0.299,0.4,0.399,0.801,0.399,0.3,0,0.5,0,0.8-0.1v0.8c-0.4,0.1-0.8,0.1-1,0.1-1.2,0-1.7-0.6-1.7-1.8v-5.399h-1.5v-0.801h1.5v-1.6l0.9-0.4v2h1.699v0.7h-1.699v5.101z"/><path fill="#010202" inkscape:connector-curvature="0" d="M143.601,12.601,143.5,11.3c-0.6,1-1.399,1.5-2.5,1.5-0.7,0-1.3-0.199-1.8-0.6s-0.7-1-0.7-1.7c0-0.899,0.4-1.6,1.2-2,0.6-0.399,1.4-0.5,2.4-0.5h1.3v-1c0-1-0.601-1.6-1.8-1.6-1.1,0-1.8,0.5-1.8,1.4h-0.9c0.2-1.399,1.1-2.1,2.8-2.1,0.9,0,1.6,0.2,2,0.6,0.3,0.301,0.6,0.7,0.7,1.101,0.1,0.3,0.1,0.7,0.1,1.399v3.4c0,0.4,0,0.9,0.101,1.5h-1v-0.099zm-0.201-4h-1.1c-0.8,0-1.399,0.1-1.899,0.3-0.7,0.3-1,0.8-1,1.5,0,0.5,0.2,0.899,0.5,1.2,0.3,0.3,0.7,0.399,1.2,0.399,0.6,0,1.199-0.2,1.6-0.6,0.4-0.4,0.7-1,0.7-1.601v1.402-1.299z"/><path fill="#010202" inkscape:connector-curvature="0" d="M146.8,12.601v-11.101h0.9v11.101h-0.9z"/><path fill="#010202" inkscape:connector-curvature="0" d="M154.8,12.601,154.7,11.3c-0.6,1-1.4,1.5-2.5,1.5-0.7,0-1.3-0.199-1.8-0.6s-0.7-1-0.7-1.7c0-0.899,0.4-1.6,1.2-2,0.6-0.399,1.4-0.5,2.4-0.5h1.301v-1c0-1-0.601-1.6-1.801-1.6-1.1,0-1.8,0.5-1.8,1.399h-0.899c0.199-1.399,1.1-2.1,2.8-2.1,0.899,0,1.6,0.2,2,0.6,0.3,0.301,0.6,0.7,0.7,1.101,0.1,0.3,0.1,0.7,0.1,1.399v3.4c0,0.4,0,0.9,0.1,1.5h-1v-0.098zm-0.1-4h-1.1c-0.801,0-1.4,0.1-1.9,0.3-0.7,0.3-1,0.8-1,1.5,0,0.5,0.2,0.899,0.5,1.2,0.3,0.3,0.7,0.399,1.2,0.399,0.6,0,1.2-0.2,1.6-0.6s0.7-1,0.7-1.601v1.402-1.299zm-1.5-4.801-2-2.6h1.1l1.5,2.6h-0.6z"/><path fill="#010202" inkscape:connector-curvature="0" d="m6.5,23.5v10.101c0,0.5,0,0.899,0.101,1h-0.901v-1.301c-0.6,1-1.5,1.5-2.5,1.5s-1.8-0.4-2.4-1.199c-0.6-0.801-0.8-1.701-0.8-2.901s0.2-2.1,0.7-2.8c0.5-0.8,1.4-1.3,2.4-1.3,1.1,0,1.899,0.5,2.5,1.399v-4.6h0.9v0.101zm-0.899,7.2c0-0.9-0.2-1.6-0.5-2.2-0.4-0.7-1-1-1.9-1s-1.4,0.4-1.8,1.101c-0.3,0.5-0.4,1.199-0.4,2.1s0.2,1.6,0.5,2.2c0.4,0.7,1,1,1.8,1,0.801,0,1.4-0.4,1.801-1.101,0.398-0.4,0.499-1.199,0.499-2.1z"/><path fill="#010202" inkscape:connector-curvature="0" d="m15.4,32.101c-0.101,0.899-0.5,1.5-1.101,2-0.6,0.399-1.3,0.6-2.199,0.6-1.101,0-2-0.4-2.601-1.2-0.6-0.7-0.899-1.7-0.899-2.8,0-1.2,0.3-2.1,0.899-2.9,0.601-0.8,1.5-1.199,2.601-1.199,1.1,0,1.899,0.399,2.5,1.1,0.6,0.7,0.8,1.6,0.8,2.7v0.3h-5.6c0,0.9,0.2,1.7,0.601,2.2,0.399,0.6,1.1,0.899,2,0.899,0.6,0,1-0.199,1.5-0.5,0.5-0.3,0.7-0.8,0.8-1.3h0.7v0.1zm-5.6-2h4.7c0-0.801-0.2-1.4-0.6-1.9s-1-0.8-1.7-0.8c-1.4-0.001-2.2,0.899-2.4,2.7z"/><path fill="#010202" inkscape:connector-curvature="0" d="M22.4,34.601v-16.701h9.1v1.3h-7.6v6.1h7.4v1.301h-7.4v8h-1.5z"/><path fill="#010202" inkscape:connector-curvature="0" d="m40.3,34.601-0.1-1.9c-0.8,1.5-2.1,2.2-3.8,2.2-1.101,0-2-0.3-2.601-0.9-0.699-0.6-1-1.5-1-2.6,0-1.4,0.601-2.4,1.801-3,1-0.5,2.1-0.8,3.6-0.8h2v-1.4c0-1.6-0.9-2.4-2.7-2.4-1.7,0-2.6,0.7-2.7,2.101h-1.4c0.2-2.101,1.6-3.2,4.1-3.2,1.3,0,2.4,0.3,3.101,0.9,0.5,0.399,0.8,1,1,1.699,0.1,0.4,0.1,1.101,0.1,2v5.099c0,0.6,0.1,1.399,0.2,2.2h-1.601zm-0.3-6h-1.6c-1.101,0-2.101,0.199-2.8,0.5-1,0.5-1.5,1.199-1.5,2.199,0,0.7,0.3,1.301,0.8,1.7,0.5,0.4,1.1,0.601,1.8,0.601,1,0,1.8-0.301,2.4-0.9,0.699-0.6,1-1.4,1-2.4v0.201z"/><path fill="#010202" inkscape:connector-curvature="0" d="M45.4,34.601v-8.801c0-0.399,0-1.3-0.101-2.8h1.4l0.1,1.8c0.601-1.199,1.701-1.9,3.101-1.9h0.7v1.4h-0.7c-1,0-1.8,0.301-2.3,1-0.5,0.601-0.801,1.5-0.801,2.5v6.801h-1.399z"/><path fill="#010202" inkscape:connector-curvature="0" d="m53.2,34.601v-9c0-0.801,0-1.7-0.1-2.7h1.4l0.101,2c1.1-1.4,2.3-2.101,3.6-2.101,1.8,0,3,0.801,3.5,2.4,1.2-1.6,2.5-2.4,3.9-2.4,2.5,0,3.8,1.5,3.8,4.601v7.1h-1.401v-7c0-2.3-0.899-3.5-2.6-3.5-1,0-1.9,0.3-2.5,1-0.6,0.699-0.9,1.6-0.9,2.6v6.8h-1.399v-7c0-2.3-0.9-3.5-2.601-3.5-1,0-1.899,0.3-2.5,1-0.6,0.7-1,1.6-1,2.6v6.8h-1.3v0.3z"/><path fill="#010202" inkscape:connector-curvature="0" d="m80.101,34.601-0.101-2c-0.8,1.5-2.1,2.199-3.8,2.199-1.1,0-2-0.3-2.6-0.899-0.7-0.601-1-1.5-1-2.601,0-1.399,0.6-2.399,1.8-3,1-0.5,2.1-0.8,3.6-0.8h2v-1.399c0-1.601-0.899-2.4-2.7-2.4-1.699,0-2.6,0.7-2.699,2.1h-1.601c0.2-2.1,1.601-3.199,4.101-3.199,1.3,0,2.399,0.3,3.1,0.899,0.5,0.4,0.8,1,1,1.7,0.1,0.4,0.1,1.1,0.1,2v5.1c0,0.601,0.101,1.4,0.2,2.2h-1.399v0.1zm-0.201-6h-1.6c-1.1,0-2.1,0.199-2.8,0.5-1,0.5-1.5,1.199-1.5,2.199,0,0.7,0.3,1.301,0.8,1.7,0.5,0.4,1.101,0.601,1.801,0.601,1,0,1.8-0.301,2.399-0.9,0.7-0.6,1-1.4,1-2.4v-1.699h-0.1z"/><path fill="#010202" inkscape:connector-curvature="0" d="M93.9,31.101c-0.1,1.299-0.5,2.199-1.299,2.899-0.7,0.601-1.7,0.9-3,0.9-1.601,0-2.9-0.601-3.801-1.8-0.8-1.101-1.199-2.5-1.199-4.2,0-1.9,0.399-3.3,1.1-4.4,0.8-1.2,2.1-1.8,3.9-1.8,1.199,0,2.199,0.3,3,1,0.8,0.7,1.199,1.7,1.3,2.9h-1.5c-0.101-0.801-0.3-1.5-0.8-2s-1.2-0.801-2-0.801c-2.301,0-3.4,1.7-3.4,5,0,3.2,1.1,4.801,3.4,4.801,1.6,0,2.6-0.9,2.899-2.601h1.4v0.102z"/><path fill="#010202" inkscape:connector-curvature="0" d="m96.5,28.8c0-1.699,0.4-3.1,1.3-4.3,1-1.2,2.2-1.8,3.9-1.8s2.9,0.6,3.9,1.8c0.899,1.101,1.3,2.5,1.3,4.3,0,1.7-0.4,3.101-1.3,4.301-1,1.199-2.2,1.8-3.9,1.8s-2.9-0.601-3.9-1.8c-0.8-1.201-1.3-2.601-1.3-4.301zm1.5,0c0,1.4,0.3,2.5,0.8,3.301,0.7,1,1.601,1.5,2.9,1.5,1.2,0,2.2-0.5,2.9-1.5,0.6-0.9,0.899-2,0.899-3.301,0-1.399-0.3-2.5-0.8-3.3-0.7-1-1.6-1.5-2.9-1.5s-2.199,0.5-2.899,1.5c-0.6,0.8-0.9,1.9-0.9,3.3z"/><path fill="#010202" inkscape:connector-curvature="0" d="M110.3,34.601v-16.701h1.4v16.7h-1.4z"/><path fill="#010202" inkscape:connector-curvature="0" d="m115.2,28.8c0-1.699,0.4-3.1,1.3-4.3,1-1.2,2.2-1.8,3.9-1.8s2.899,0.6,3.899,1.8c0.9,1.101,1.301,2.5,1.301,4.3,0,1.7-0.4,3.101-1.301,4.301-1,1.199-2.199,1.8-3.899,1.8s-2.9-0.601-3.9-1.8c-0.899-1.201-1.3-2.601-1.3-4.301zm1.401,0c0,1.4,0.3,2.5,0.8,3.301,0.7,1,1.6,1.5,2.899,1.5,1.2,0,2.2-0.5,2.9-1.5,0.6-0.9,0.9-2,0.9-3.301,0-1.399-0.301-2.5-0.801-3.3-0.699-1-1.6-1.5-2.899-1.5s-2.2,0.5-2.9,1.5c-0.6,0.8-0.899,1.9-0.899,3.3z"/><path fill="#010202" inkscape:connector-curvature="0" d="m138.101,33.601c0,1.899-0.4,3.199-1.101,4.1-0.8,1-2.1,1.4-3.8,1.4-2.9,0-4.4-1.101-4.5-3.301h1.5c0.1,1.4,1.1,2.101,3,2.101,2.4,0,3.6-1.3,3.6-3.8v-1.7c-0.899,1.399-2.199,2.1-3.8,2.1-1.6,0-2.7-0.6-3.6-1.8-0.7-1.1-1.101-2.4-1.101-4.1,0-1.601,0.4-3,1.101-4.101,0.8-1.2,2-1.8,3.6-1.8,1.601,0,2.8,0.7,3.7,2.1l0.1-1.899h1.4c-0.1,1.5-0.1,2.399-0.1,3v7.7h0.001zm-8.301-5.101c0,1.4,0.2,2.4,0.7,3.3,0.601,1,1.5,1.5,2.7,1.5s2.1-0.5,2.8-1.5c0.5-0.8,0.8-1.899,0.8-3.199,0-1.301-0.3-2.4-0.8-3.301-0.6-1-1.6-1.5-2.8-1.5s-2.1,0.5-2.7,1.5c-0.5,0.9-0.7,2-0.7,3.2z"/><path fill="#010202" inkscape:connector-curvature="0" d="m142.101,19.8v-1.9h1.699v1.9h-1.699zm0.099,14.801v-11.601h1.4v11.601h-1.4z"/><path fill="#010202" inkscape:connector-curvature="0" d="m154.5,34.601-0.1-1.9c-0.8,1.5-2.101,2.2-3.8,2.2-1.101,0-2-0.3-2.601-0.9-0.7-0.6-1-1.5-1-2.6,0-1.4,0.601-2.4,1.8-3,1-0.5,2.101-0.8,3.601-0.8h2v-1.4c0-1.6-0.9-2.4-2.7-2.4-1.7,0-2.6,0.7-2.7,2.101h-1.399c0.199-2.101,1.6-3.2,4.1-3.2,1.3,0,2.4,0.3,3.1,0.9,0.5,0.399,0.801,1,1,1.699,0.101,0.4,0.101,1.101,0.101,2v5.099c0,0.6,0.1,1.399,0.2,2.2h-1.602v0.001zm-0.3-6h-1.6c-1.101,0-2.101,0.199-2.801,0.5-1,0.5-1.5,1.199-1.5,2.199,0,0.7,0.301,1.301,0.801,1.7,0.5,0.4,1.1,0.601,1.8,0.601,1,0,1.8-0.301,2.399-0.9,0.7-0.6,1-1.4,1-2.4v0.201h0.001z"/></g></svg>
