<?xml version="1.0" encoding="utf-8"?>
<!-- Generator: Adobe Illustrator 19.1.0, SVG Export Plug-In . SVG Version: 6.00 Build 0)  -->
<svg version="1.1" id="Capa_1" xmlns="http://www.w3.org/2000/svg" xmlns:xlink="http://www.w3.org/1999/xlink" x="0px" y="0px"
	 viewBox="-231 374.8 148.4 45.2" style="enable-background:new -231 374.8 148.4 45.2;" xml:space="preserve">
<style type="text/css">
	.st0{fill:#2C4EFB;}
</style>
<g>
	<path class="st0" d="M-200.5,386.3c2.9,0,5.3-2.4,5.3-5.3c0-2.9-2.4-5.3-5.3-5.3s-5.3,2.4-5.3,5.3
		C-205.8,383.9-203.4,386.3-200.5,386.3"/>
	<path class="st0" d="M-222.7,408.6c2.9,0,5.3-2.4,5.3-5.3s-2.4-5.3-5.3-5.3c-2.9,0-5.3,2.3-5.3,5.3
		C-228,406.2-225.7,408.6-222.7,408.6"/>
	<path class="st0" d="M-190,398.1h-5.2v-5.3c0-2.9-2.3-5.2-5.2-5.2c-2.9,0-5.2,2.3-5.2,5.2v5.2h-5.2c-2.9,0-5.2,2.3-5.2,5.2
		s2.3,5.2,5.2,5.2h5.2v5.2c0,2.9,2.3,5.2,5.2,5.2c2.9,0,5.2-2.3,5.2-5.2v-5.2h5.2c2.9,0,5.2-2.3,5.2-5.2
		C-184.8,400.4-187.1,398.1-190,398.1"/>
</g>
<polygon class="st0" points="-170.5,392 -175.3,392 -180.8,376.9 -176,376.9 -172.9,387.3 -169.9,376.9 -164.8,376.9 "/>
<g>
	<path class="st0" d="M-154.3,381.3V392h-4.2v-1.6c-0.4,0.9-1.7,1.9-3.3,1.9c-2.9,0-5-2.3-5-5.6c0-3.4,2.1-5.6,5-5.6
		c1.5,0,2.9,1,3.3,1.9v-1.7H-154.3z M-158.5,386.7c0-1.2-0.8-2.1-2-2.1s-2,1-2,2.1s0.8,2.1,2,2.1S-158.5,387.8-158.5,386.7"/>
</g>
<rect x="-152.8" y="376.9" class="st0" width="4.2" height="15.1"/>
<rect x="-147.1" y="376.9" class="st0" width="4.2" height="15.1"/>
<g>
	<path class="st0" d="M-171.7,408.6c-0.4,0.9-1.7,1.9-3.3,1.9c-2.9,0-5-2.3-5-5.6c0-3.4,2.1-5.6,5-5.6c1.5,0,2.9,1,3.3,1.9v-6h4.2
		v15.1h-4.2V408.6z M-171.7,404.8c0-1.2-0.8-2.1-2-2.1s-2,1-2,2.1s0.8,2.1,2,2.1S-171.7,406-171.7,404.8"/>
	<path class="st0" d="M-163.8,395c1.7,0,2.8,1.3,2.8,3.2c0,3.8-1.9,5.1-5.1,5.1v-1.5c1,0,1.8-0.2,2.2-0.6c0.5-0.4,0.7-0.9,0.7-1.4
		c-0.1,0.1-0.4,0.2-0.7,0.2c-1.5,0-2.4-1.1-2.4-2.5C-166.3,396.1-165.2,395-163.8,395"/>
</g>
<polygon class="st0" points="-151.2,404.5 -155.4,404.5 -155.4,410.2 -159.9,410.2 -159.9,395.1 -155.4,395.1 -155.4,400.8 
	-151.2,400.8 -151.2,395.1 -146.7,395.1 -146.7,410.2 -151.2,410.2 "/>
<g>
	<path class="st0" d="M-141.4,405.7c0,1,0.5,2,2,2c0.9,0,1.5-0.5,1.7-1.1h4.1c-0.4,2.2-2.4,3.9-5.8,3.9c-3.9,0-6.2-2.2-6.2-5.7
		c0-3.1,2.1-5.7,6.1-5.7c3.9,0,6,2.4,6,5c0,0.5,0,1-0.1,1.6H-141.4z M-141.4,403.6h3.7c0-1.2-0.7-1.9-1.8-1.9
		C-140.6,401.8-141.4,402.4-141.4,403.6"/>
	<path class="st0" d="M-128.3,410.2h-4.2v-15.1h4.2v6c0.4-0.9,1.7-1.9,3.3-1.9c2.9,0,5,2.3,5,5.6c0,3.4-2.1,5.6-5,5.6
		c-1.5,0-2.9-1-3.3-1.9V410.2z M-124.3,404.8c0-1.2-0.8-2.1-2-2.1s-2,0.9-2,2.1c0,1.1,0.8,2.1,2,2.1
		C-125.1,406.9-124.3,406-124.3,404.8"/>
	<path class="st0" d="M-110.6,403.2c-0.6-0.2-0.9-0.2-1.4-0.2c-1.6,0-2.9,0.8-2.9,3.3v3.8h-4.2v-10.7h4.2v1.7c0.5-1,1.7-1.9,3.2-1.9
		c0.5,0,0.8,0,1.1,0.2C-110.6,399.4-110.6,403.2-110.6,403.2z"/>
	<path class="st0" d="M-110.7,404.8c0-3.1,2.2-5.7,6.2-5.7s6.3,2.5,6.3,5.7c0,3.1-2.3,5.7-6.3,5.7S-110.7,407.9-110.7,404.8
		 M-102.5,404.8c0-1.2-0.8-2.1-2-2.1s-2,0.9-2,2.1s0.8,2.1,2,2.1S-102.5,406-102.5,404.8"/>
	<path class="st0" d="M-97.4,399.4h4.2v1.6c0.6-1.1,1.8-1.8,3.5-1.8c1.2,0,2.2,0.4,2.8,1c0.8,0.8,1,2,1,3.6v6.4h-4.2v-5.4
		c0-1.3-0.4-2-1.5-2s-1.6,0.8-1.6,2.2v5.2h-4.2V399.4z"/>
	<path class="st0" d="M-85.9,414.6h-1l0,0c0.2,0.2,0.4,0.3,0.4,0.6v1.8c0,0.4-0.1,0.5-0.4,0.7l0,0h1.3l0,0c-0.3-0.2-0.4-0.2-0.4-0.7
		L-85.9,414.6L-85.9,414.6z M-86.6,413.5c0,0.2,0.2,0.4,0.4,0.4s0.4-0.2,0.4-0.4c0-0.2-0.2-0.4-0.4-0.4
		C-86.4,413.1-86.6,413.3-86.6,413.5 M-88.8,416.3c0-0.7,0.4-1.3,0.8-1.3c0.3,0,0.4,0.2,0.4,0.4c0.2,0,0.4-0.2,0.4-0.4
		c0-0.3-0.2-0.5-0.5-0.5c-0.5,0-0.9,0.5-1,1v-0.9h-1l0,0c0.2,0.2,0.4,0.3,0.4,0.6v1.8c0,0.4-0.1,0.5-0.4,0.7l0,0h1.6v-0.1
		c-0.5-0.1-0.6-0.2-0.6-0.6L-88.8,416.3L-88.8,416.3z M-90,417.6c-0.4,0-0.6-0.2-0.6-0.5c0-0.4,0-0.9,0-1.4c0-0.7-0.4-1.1-1.2-1.1
		s-1.3,0.4-1.3,0.8c0,0.2,0.1,0.4,0.4,0.4c0.1,0,0.3,0,0.3-0.1c-0.1-0.1-0.1-0.2-0.1-0.3c0-0.3,0.2-0.5,0.6-0.5
		c0.5,0,0.7,0.2,0.7,0.8v0.2l-0.5,0.1c-0.8,0.1-1.5,0.3-1.5,1c0,0.5,0.4,0.8,0.9,0.8s1-0.3,1.1-0.7c0,0.5,0.2,0.7,0.6,0.7
		C-90.4,417.8-90.1,417.7-90,417.6L-90,417.6z M-91.2,416.1v0.3c0,0.7-0.5,1-0.9,1c-0.3,0-0.6-0.2-0.6-0.5c0-0.5,0.3-0.6,1-0.8
		H-91.2z M-93.9,412.9h-1l0,0c0.2,0.2,0.4,0.3,0.4,0.6v3.5c0,0.4-0.1,0.5-0.4,0.7l0,0h1.3l0,0c-0.3-0.2-0.4-0.2-0.4-0.7L-93.9,412.9
		L-93.9,412.9z M-95.2,417.6c-0.4,0-0.6-0.2-0.6-0.5c0-0.4,0-0.9,0-1.4c0-0.7-0.4-1.1-1.2-1.1s-1.3,0.4-1.3,0.8
		c0,0.2,0.1,0.4,0.4,0.4c0.1,0,0.3,0,0.3-0.1c-0.1-0.1-0.1-0.2-0.1-0.3c0-0.3,0.2-0.5,0.6-0.5c0.5,0,0.7,0.2,0.7,0.8v0.2l-0.5,0.1
		c-0.8,0.1-1.5,0.3-1.5,1c0,0.5,0.4,0.8,0.9,0.8s1-0.3,1.1-0.7c0,0.5,0.2,0.7,0.6,0.7C-95.5,417.8-95.3,417.7-95.2,417.6
		L-95.2,417.6z M-96.4,416.1v0.3c0,0.7-0.5,1-0.9,1c-0.3,0-0.6-0.2-0.6-0.5c0-0.5,0.3-0.6,1-0.8H-96.4z M-101.2,414.9h0.5v2
		c0,0.6,0.4,0.9,0.9,0.9c0.6,0,0.9-0.4,1-1h-0.1c-0.1,0.5-0.3,0.7-0.6,0.7s-0.5-0.2-0.5-0.6v-2h1.1v-0.3h-1.1v-1.1h-0.2
		c-0.1,0.6-0.4,1.1-0.9,1.2L-101.2,414.9L-101.2,414.9z M-101.6,414.6h-1l0,0c0.2,0.2,0.4,0.3,0.4,0.6v1.8c0,0.4-0.1,0.5-0.4,0.7
		l0,0h1.3l0,0c-0.3-0.2-0.4-0.2-0.4-0.7L-101.6,414.6L-101.6,414.6z M-102.3,413.5c0,0.2,0.2,0.4,0.4,0.4s0.4-0.2,0.4-0.4
		c0-0.2-0.2-0.4-0.4-0.4S-102.3,413.3-102.3,413.5 M-105.5,417.2c0.2,0.3,0.5,0.6,1.1,0.6c0.8,0,1.5-0.7,1.5-1.7s-0.6-1.6-1.4-1.6
		c-0.6,0-1,0.4-1.2,0.8v-0.8h-1l0,0c0.2,0.2,0.4,0.3,0.4,0.6v3.2c0,0.4-0.1,0.5-0.4,0.7l0,0h1.4v-0.1c-0.3-0.2-0.5-0.2-0.5-0.7
		L-105.5,417.2L-105.5,417.2z M-105.5,416.1c0-0.6,0.4-1.2,1-1.2s1,0.5,1,1.2c0,0.9-0.4,1.4-1,1.4c-0.4,0-1-0.3-1-1V416.1z
		 M-108.2,414.8c0.5,0,0.8,0.3,1.1,0.8h0.1v-1.1l0,0l-0.2,0.3c-0.2-0.1-0.5-0.3-0.9-0.3c-0.6,0-1.1,0.4-1.1,0.9s0.3,0.8,1.1,0.9
		c0.5,0.1,0.8,0.2,0.8,0.6s-0.3,0.6-0.7,0.6c-0.5,0-0.9-0.3-1.2-0.9h-0.1l0.1,1.2h0.1l0.2-0.3c0.2,0.1,0.5,0.3,1,0.3
		c0.7,0,1.2-0.4,1.2-1c0-0.5-0.3-0.8-1.2-1c-0.6-0.1-0.8-0.3-0.8-0.6C-108.8,415-108.6,414.8-108.2,414.8 M-110.5,416.2
		c0,0.8-0.3,1.4-0.9,1.4s-1-0.5-1-1.4c0-0.8,0.3-1.4,1-1.4C-110.8,414.8-110.5,415.3-110.5,416.2 M-109.9,416.2c0-1-0.7-1.6-1.6-1.6
		s-1.6,0.7-1.6,1.6c0,1,0.7,1.6,1.6,1.6C-110.5,417.8-109.9,417.1-109.9,416.2 M-118.1,417.7h1.4v-0.1c-0.3-0.2-0.4-0.2-0.4-0.7
		v-1.5h2.7v1.5c0,0.4-0.1,0.5-0.4,0.7v0.1h1.4v-0.1c-0.3-0.2-0.4-0.2-0.4-0.7v-3.1c0-0.4,0.1-0.5,0.4-0.7V413h-1.4v0.1
		c0.3,0.2,0.4,0.2,0.4,0.7v1.3h-2.7v-1.3c0-0.4,0.1-0.5,0.4-0.7V413h-1.4v0.1c0.3,0.2,0.4,0.2,0.4,0.7v3.1
		C-117.7,417.4-117.8,417.5-118.1,417.7L-118.1,417.7z M-121.5,414.8c0.5,0,0.8,0.3,1.1,0.8h0.1v-1.1l0,0l-0.2,0.3
		c-0.2-0.1-0.5-0.3-0.9-0.3c-0.6,0-1.1,0.4-1.1,0.9s0.3,0.8,1.1,0.9c0.5,0.1,0.8,0.2,0.8,0.6s-0.3,0.6-0.7,0.6
		c-0.5,0-0.9-0.3-1.2-0.9h-0.1l0.1,1.2h0.1l0.2-0.3c0.2,0.1,0.5,0.3,1,0.3c0.7,0,1.2-0.4,1.2-1c0-0.5-0.3-0.8-1.2-1
		c-0.6-0.1-0.8-0.3-0.8-0.6C-122.1,415-121.9,414.8-121.5,414.8 M-125.6,414.6h-1l0,0c0.2,0.2,0.4,0.3,0.4,0.6v1.4
		c0,0.7,0.4,1.1,1,1.1c0.5,0,0.9-0.3,1.1-0.9v0.8h0.9l0,0c-0.3-0.2-0.4-0.2-0.4-0.7v-2.4h-1l0,0c0.3,0.2,0.4,0.3,0.4,0.6v1
		c0,0.7-0.4,1.2-0.9,1.2s-0.7-0.4-0.7-0.8v-1.9H-125.6z M-129.5,417.2c0.2,0.3,0.5,0.6,1.1,0.6c0.8,0,1.5-0.7,1.5-1.7
		s-0.6-1.6-1.4-1.6c-0.6,0-1,0.4-1.2,0.8v-0.8h-1l0,0c0.2,0.2,0.4,0.3,0.4,0.6v3.2c0,0.4-0.1,0.5-0.4,0.7l0,0h1.4v-0.1
		c-0.3-0.2-0.5-0.2-0.5-0.7v-1H-129.5z M-129.5,416.1c0-0.6,0.4-1.2,1-1.2c0.6,0,1,0.5,1,1.2c0,0.9-0.4,1.4-1,1.4c-0.4,0-1-0.3-1-1
		V416.1z M-133,415.4c-0.1-0.5-0.4-0.9-0.9-0.9s-0.9,0.3-1.1,0.8v-0.8h-1l0,0c0.2,0.2,0.4,0.3,0.4,0.6v1.8c0,0.4-0.1,0.5-0.4,0.7
		l0,0h1.3l0,0c-0.3-0.2-0.4-0.2-0.4-0.7v-1c0-0.7,0.4-1.2,0.8-1.2c0.5,0,0.6,0.4,0.6,0.8v1.3c0,0.4-0.1,0.5-0.4,0.7l0,0h1.3l0,0
		c-0.3-0.2-0.4-0.2-0.4-0.7v-0.9c0-0.7,0.4-1.2,0.8-1.2c0.5,0,0.6,0.4,0.6,0.8v1.3c0,0.4-0.1,0.5-0.4,0.7l0,0h1.3l0,0
		c-0.3-0.2-0.4-0.2-0.4-0.7v-1.4c0-0.7-0.3-1.1-0.9-1.1C-132.4,414.5-132.8,414.9-133,415.4 M-136.2,417.6c-0.4,0-0.6-0.2-0.6-0.5
		c0-0.4,0-0.9,0-1.4c0-0.7-0.4-1.1-1.2-1.1c-0.8,0-1.3,0.4-1.3,0.8c0,0.2,0.1,0.4,0.4,0.4c0.1,0,0.3,0,0.3-0.1
		c-0.1-0.1-0.1-0.2-0.1-0.3c0-0.3,0.2-0.5,0.6-0.5c0.5,0,0.7,0.2,0.7,0.8v0.2l-0.5,0.1c-0.8,0.1-1.5,0.3-1.5,1
		c0,0.5,0.4,0.8,0.9,0.8s1-0.3,1.1-0.7c0,0.5,0.2,0.7,0.6,0.7C-136.6,417.8-136.3,417.7-136.2,417.6L-136.2,417.6z M-137.4,416.1
		v0.3c0,0.7-0.5,1-0.9,1c-0.3,0-0.6-0.2-0.6-0.5c0-0.5,0.3-0.6,1-0.8H-137.4z M-141.7,413.4c0.7,0,1.1,0.5,1.4,1.1h0.1v-1.4h-0.1
		l-0.3,0.4c-0.3-0.2-0.6-0.4-1.1-0.4c-1.3,0-2.3,1-2.3,2.3c0,1.4,0.9,2.3,2.2,2.3c0.9,0,1.6-0.5,1.8-1.4h-0.1c-0.3,0.7-0.8,1-1.5,1
		c-0.9,0-1.7-0.7-1.7-2C-143.3,414.3-142.6,413.4-141.7,413.4 M-145.7,417.6c-0.4-0.1-0.5-0.2-0.5-0.7s0-1,0-1.3
		c0-0.8-0.5-1.1-1.5-1.1c-0.9,0-1.4,0.3-1.4,0.8c0,0.3,0.2,0.5,0.6,0.5c0.2,0,0.5-0.1,0.5-0.2c-0.1-0.1-0.2-0.1-0.2-0.4
		c0-0.3,0.2-0.4,0.4-0.4c0.4,0,0.5,0.3,0.5,0.6v0.4l-0.5,0.1c-0.7,0.1-1.5,0.3-1.5,1.1c0,0.5,0.4,0.8,1,0.8c0.5,0,0.9-0.2,1.1-0.7
		c0.1,0.5,0.3,0.7,0.8,0.7C-146.1,417.8-145.8,417.7-145.7,417.6L-145.7,417.6z M-147.3,416.1v0.4c0,0.5-0.2,0.8-0.5,0.8
		s-0.4-0.2-0.4-0.5c0-0.4,0.2-0.5,0.6-0.6L-147.3,416.1z M-149.9,415.6c0-0.6-0.3-1.1-1.1-1.1c-0.5,0-0.9,0.3-1.1,0.9v-0.8h-1.5v0.1
		c0.3,0.2,0.4,0.3,0.4,0.7v1.7c0,0.4-0.1,0.5-0.3,0.7v0.1h1.8v-0.1c-0.3-0.3-0.3-0.4-0.3-0.8v-1c0-0.6,0.2-0.8,0.6-0.8
		c0.3,0,0.5,0.2,0.5,0.5v1.3c0,0.4-0.1,0.5-0.3,0.7v0.1h1.8v-0.1c-0.3-0.2-0.3-0.3-0.3-0.7v-1.4H-149.9z M-155.1,416.1
		c0,1-0.1,1.4-0.6,1.4c-0.4,0-0.6-0.4-0.6-1.4s0.1-1.4,0.6-1.4C-155.2,414.8-155.1,415.2-155.1,416.1 M-153.9,416.1
		c0-1-0.8-1.7-1.8-1.7s-1.8,0.7-1.8,1.7s0.8,1.7,1.8,1.7C-154.7,417.8-153.9,417.2-153.9,416.1 M-158.1,412.9h-1.5v0.1
		c0.3,0.2,0.4,0.3,0.4,0.7v3.4c0,0.4-0.1,0.5-0.3,0.7v0.1h1.8v-0.1c-0.3-0.2-0.3-0.3-0.3-0.7v-4.2H-158.1z M-162,415.8
		c0-0.6,0.2-1,0.5-1s0.4,0.5,0.4,1H-162z M-161.4,414.5c-1,0-1.7,0.7-1.7,1.7c0,1.1,0.8,1.7,1.7,1.7c0.7,0,1.3-0.4,1.5-1.1h-0.1
		c-0.2,0.4-0.5,0.6-0.9,0.6c-0.6,0-0.9-0.5-0.9-1.2h2.1C-159.9,415.1-160.4,414.5-161.4,414.5 M-164.8,414.7c0.3,0,0.4,0.2,0.4,0.4
		c0,0.3-0.1,0.4-0.2,0.5c0,0.1,0.2,0.2,0.4,0.2c0.3,0,0.6-0.1,0.6-0.5c0-0.5-0.6-0.8-1.2-0.8c-1,0-1.8,0.7-1.8,1.7
		c0,1.1,0.7,1.7,1.6,1.7c0.7,0,1.3-0.4,1.4-1h-0.1c-0.2,0.4-0.5,0.6-0.9,0.6c-0.6,0-0.9-0.5-0.9-1.3
		C-165.5,415.3-165.2,414.7-164.8,414.7 M-168.6,416.2c0-0.6,0.3-0.9,0.6-0.9s0.5,0.3,0.5,0.6c0.3-0.1,0.6-0.3,0.6-0.8
		c0-0.4-0.2-0.6-0.6-0.6c-0.6,0-0.9,0.5-1,1.1v-1h-1.5v0.1c0.3,0.2,0.4,0.3,0.4,0.7v1.7c0,0.4-0.1,0.5-0.3,0.7v0.1h1.9v-0.1
		c-0.4-0.2-0.6-0.3-0.6-0.7V416.2z M-170.3,417.6c-0.4-0.1-0.5-0.2-0.5-0.7s0-1,0-1.3c0-0.8-0.5-1.1-1.5-1.1c-0.9,0-1.4,0.3-1.4,0.8
		c0,0.3,0.2,0.5,0.6,0.5c0.2,0,0.5-0.1,0.5-0.2c-0.1-0.1-0.2-0.1-0.2-0.4c0-0.3,0.2-0.4,0.4-0.4c0.4,0,0.5,0.3,0.5,0.6v0.4l-0.5,0.1
		c-0.7,0.1-1.5,0.3-1.5,1.1c0,0.5,0.4,0.8,1,0.8c0.5,0,0.9-0.2,1.1-0.7c0.1,0.5,0.3,0.7,0.8,0.7
		C-170.8,417.8-170.5,417.7-170.3,417.6L-170.3,417.6z M-172,416.1v0.4c0,0.5-0.2,0.8-0.5,0.8s-0.4-0.2-0.4-0.5
		c0-0.4,0.2-0.5,0.6-0.6L-172,416.1z M-176.7,415.6c0.6,0,1,0.3,1,0.9c0,0.7-0.4,0.9-1,0.9h-0.4v-1.9L-176.7,415.6L-176.7,415.6z
		 M-177.1,413.5h0.3c0.5,0,0.9,0.3,0.9,0.9s-0.4,0.9-0.9,0.9h-0.3V413.5z M-176.2,417.7c1,0,1.7-0.3,1.7-1.2c0-0.8-0.7-1.1-1.4-1.1
		l0,0c0.6-0.1,1.2-0.4,1.2-1.1c0-0.8-0.7-1.1-1.6-1.1h-2.4v0.1c0.3,0.2,0.4,0.3,0.4,0.7v3c0,0.4-0.1,0.5-0.4,0.7v0.1h2.5V417.7z"/>
</g>
</svg>
